SourceCode-ExtraLight.ufo
<glyph name="numbersign" format="2">
	<unicode hex="0023"/>
	<advance width="600"/>
	<outline>
		<contour>
			<point x="342" y="0" type="line"/>
			<point x="370" y="0" type="line"/>
			<point x="450" y="650" type="line"/>
			<point x="422" y="650" type="line"/>
		</contour>
		<contour>
			<point x="158" y="0" type="line"/>
			<point x="186" y="0" type="line"/>
			<point x="266" y="650" type="line"/>
			<point x="238" y="650" type="line"/>
		</contour>
		<contour>
			<point x="120" y="424" type="line"/>
			<point x="506" y="424" type="line"/>
			<point x="506" y="452" type="line"/>
			<point x="120" y="452" type="line"/>
		</contour>
		<contour>
			<point x="100" y="218" type="line"/>
			<point x="486" y="218" type="line"/>
			<point x="486" y="246" type="line"/>
			<point x="100" y="246" type="line"/>
		</contour>
	</outline>
</glyph>
<glyph name="H" format="2">
	<unicode hex="0048"/>
	<advance width="600"/>
	<outline>
		<contour>
			<point x="92" y="0" type="line"/>
			<point x="124" y="0" type="line"/>
			<point x="124" y="338" type="line"/>
			<point x="476" y="338" type="line"/>
			<point x="476" y="0" type="line"/>
			<point x="508" y="0" type="line"/>
			<point x="508" y="660" type="line"/>
			<point x="476" y="660" type="line"/>
			<point x="476" y="366" type="line"/>
			<point x="124" y="366" type="line"/>
			<point x="124" y="660" type="line"/>
			<point x="92" y="660" type="line"/>
		</contour>
	</outline>
	<anchor name="aboveUC" x="300" y="680"/>
	<anchor name="baseLC" x="108" y="0"/>
	<anchor name="belowLC" x="300" y="-20"/>
</glyph>
<glyph name="Z" format="2">
	<unicode hex="005A"/>
	<advance width="600"/>
	<outline>
		<contour>
			<point x="72" y="0" type="line"/>
			<point x="533" y="0" type="line"/>
			<point x="533" y="28" type="line"/>
			<point x="109" y="28" type="line"/>
			<point x="526" y="642" type="line"/>
			<point x="526" y="661" type="line"/>
			<point x="107" y="661" type="line"/>
			<point x="107" y="634" type="line"/>
			<point x="488" y="634" type="line"/>
			<point x="72" y="19" type="line"/>
		</contour>
	</outline>
	<anchor name="aboveUC" x="316" y="680"/>
	<anchor name="baseLC" x="320" y="0"/>
	<anchor name="belowLC" x="320" y="-20"/>
</glyph>
<glyph name="h" format="2">
	<unicode hex="0068"/>
	<advance width="600"/>
	<outline>
		<contour>
			<point x="110" y="0" type="line"/>
			<point x="140" y="0" type="line"/>
			<point x="140" y="346" type="line"/>
			<point x="214" y="424"/>
			<point x="264" y="462"/>
			<point x="336" y="462" type="curve" smooth="yes"/>
			<point x="437" y="462"/>
			<point x="480" y="407"/>
			<point x="480" y="294" type="curve" smooth="yes"/>
			<point x="480" y="0" type="line"/>
			<point x="510" y="0" type="line"/>
			<point x="510" y="298" type="line" smooth="yes"/>
			<point x="510" y="429"/>
			<point x="453" y="490"/>
			<point x="336" y="490" type="curve" smooth="yes"/>
			<point x="259" y="490"/>
			<point x="200" y="444"/>
			<point x="140" y="378" type="curve"/>
			<point x="138" y="378" type="line"/>
			<point x="140" y="508" type="line"/>
			<point x="140" y="722" type="line"/>
			<point x="110" y="722" type="line"/>
		</contour>
	</outline>
	<anchor name="aboveUC" x="120" y="740"/>
	<anchor name="baseLC" x="124" y="0"/>
	<anchor name="belowLC" x="320" y="-20"/>
</glyph>
<glyph name="henghook" format="2">
	<unicode hex="0267"/>
	<advance width="600"/>
	<outline>
		<contour>
			<point x="402" y="-180" type="curve" smooth="yes"/>
			<point x="475" y="-180"/>
			<point x="510" y="-137"/>
			<point x="510" y="-38" type="curve"/>
			<point x="510" y="298" type="line" smooth="yes"/>
			<point x="510" y="429"/>
			<point x="453" y="490"/>
			<point x="336" y="490" type="curve" smooth="yes"/>
			<point x="259" y="490"/>
			<point x="200" y="444"/>
			<point x="140" y="378" type="curve"/>
			<point x="136" y="378" type="line"/>
			<point x="140" y="562" type="line"/>
			<point x="141" y="646"/>
			<point x="175" y="706"/>
			<point x="258" y="706" type="curve" smooth="yes"/>
			<point x="279" y="706"/>
			<point x="302" y="701"/>
			<point x="326" y="690" type="curve"/>
			<point x="338" y="716" type="line"/>
			<point x="312" y="727"/>
			<point x="283" y="734"/>
			<point x="260" y="734" type="curve" smooth="yes"/>
			<point x="168" y="734"/>
			<point x="110" y="674"/>
			<point x="110" y="566" type="curve"/>
			<point x="110" y="0" type="line"/>
			<point x="140" y="0" type="line"/>
			<point x="140" y="346" type="line"/>
			<point x="214" y="424"/>
			<point x="264" y="462"/>
			<point x="336" y="462" type="curve" smooth="yes"/>
			<point x="437" y="462"/>
			<point x="480" y="407"/>
			<point x="480" y="294" type="curve" smooth="yes"/>
			<point x="480" y="-34" type="line"/>
			<point x="480" y="-102"/>
			<point x="468" y="-152"/>
			<point x="404" y="-152" type="curve" smooth="yes"/>
			<point x="380" y="-152"/>
			<point x="356" y="-145"/>
			<point x="342" y="-140" type="curve"/>
			<point x="334" y="-166" type="line"/>
			<point x="350" y="-173"/>
			<point x="379" y="-180"/>
		</contour>
	</outline>
	<anchor name="aboveUC" x="260" y="740"/>
	<anchor name="belowLC" x="390" y="-230"/>
</glyph>
<glyph name="rfishhook" format="2">
	<unicode hex="027E"/>
	<advance width="600"/>
	<outline>
		<contour>
			<point x="170" y="0" type="line"/>
			<point x="200" y="0" type="line"/>
			<point x="200" y="238" type="line" smooth="yes"/>
			<point x="200" y="388"/>
			<point x="290" y="460"/>
			<point x="414" y="460" type="curve" smooth="yes"/>
			<point x="446" y="460"/>
			<point x="482" y="456"/>
			<point x="518" y="442" type="curve"/>
			<point x="528" y="470" type="line"/>
			<point x="494" y="484"/>
			<point x="455" y="490"/>
			<point x="416" y="490" type="curve" smooth="yes"/>
			<point x="284" y="490"/>
			<point x="170" y="420"/>
			<point x="170" y="242" type="curve" smooth="yes"/>
		</contour>
	</outline>
	<anchor name="aboveLC" x="360" y="500"/>
	<anchor name="belowLC" x="190" y="-20"/>
</glyph>
<glyph name="clickbilabial" format="2">
	<unicode hex="0298"/>
	<advance width="600"/>
	<outline>
		<contour>
			<point x="300" y="-12" type="curve" smooth="yes"/>
			<point x="446" y="-12"/>
			<point x="530" y="98"/>
			<point x="530" y="364" type="curve" smooth="yes"/>
			<point x="530" y="598"/>
			<point x="446" y="734"/>
			<point x="300" y="734" type="curve" smooth="yes"/>
			<point x="154" y="734"/>
			<point x="70" y="598"/>
			<point x="70" y="364" type="curve" smooth="yes"/>
			<point x="70" y="98"/>
			<point x="154" y="-12"/>
		</contour>
		<contour>
			<point x="300" y="16" type="curve" smooth="yes"/>
			<point x="184" y="16"/>
			<point x="102" y="114"/>
			<point x="102" y="364" type="curve" smooth="yes"/>
			<point x="102" y="586"/>
			<point x="184" y="706"/>
			<point x="300" y="706" type="curve" smooth="yes"/>
			<point x="416" y="706"/>
			<point x="498" y="586"/>
			<point x="498" y="364" type="curve" smooth="yes"/>
			<point x="498" y="114"/>
			<point x="416" y="16"/>
		</contour>
		<contour>
			<point x="300" y="308" type="curve" smooth="yes"/>
			<point x="328" y="308"/>
			<point x="354" y="331"/>
			<point x="354" y="364" type="curve" smooth="yes"/>
			<point x="354" y="400"/>
			<point x="328" y="420"/>
			<point x="300" y="420" type="curve" smooth="yes"/>
			<point x="272" y="420"/>
			<point x="246" y="400"/>
			<point x="246" y="364" type="curve" smooth="yes"/>
			<point x="246" y="331"/>
			<point x="272" y="308"/>
		</contour>
	</outline>
</glyph>
<glyph name="lsmall" format="2">
	<unicode hex="029F"/>
	<advance width="600"/>
	<outline>
		<contour>
			<point x="170" y="0" type="line"/>
			<point x="528" y="0" type="line"/>
			<point x="528" y="28" type="line"/>
			<point x="200" y="28" type="line"/>
			<point x="200" y="478" type="line"/>
			<point x="170" y="478" type="line"/>
		</contour>
	</outline>
	<anchor name="aboveLC" x="190" y="500"/>
	<anchor name="belowLC" x="350" y="-20"/>
</glyph>
<glyph name="leftangleabovecmb" format="2">
	<unicode hex="031A"/>
	<advance width="600"/>
	<outline>
		<contour>
			<point x="346" y="572" type="line"/>
			<point x="374" y="572" type="line"/>
			<point x="374" y="706" type="line"/>
			<point x="234" y="706" type="line"/>
			<point x="234" y="678" type="line"/>
			<point x="346" y="678" type="line"/>
		</contour>
	</outline>
	<anchor name="_aboverightLC" x="300" y="500"/>
</glyph>
<glyph name="verticallinebelowcmb" format="2">
	<unicode hex="0329"/>
	<advance width="600"/>
	<outline>
		<contour>
			<point x="284" y="-264" type="line"/>
			<point x="316" y="-264" type="line"/>
			<point x="310" y="-76" type="line"/>
			<point x="290" y="-76" type="line"/>
		</contour>
	</outline>
	<anchor name="_belowLC" x="300" y="-20"/>
</glyph>
<glyph name="Zedescender" format="2">
	<unicode hex="0498"/>
	<advance width="600"/>
	<outline>
		<contour>
			<point x="289" y="-188" type="line"/>
			<point x="315" y="-188" type="line"/>
			<point x="321" y="12" type="line"/>
			<point x="289" y="0" type="line"/>
		</contour>
		<component base="Ze" yOffset="-1"/>
	</outline>
</glyph>
<glyph name="schwa.sups" format="2">
	<unicode hex="2094"/>
	<advance width="600"/>
	<outline>
		<contour>
			<point x="300" y="403" type="curve" smooth="yes"/>
			<point x="379" y="403"/>
			<point x="448" y="466"/>
			<point x="448" y="570" type="curve" smooth="yes"/>
			<point x="448" y="674"/>
			<point x="381" y="736"/>
			<point x="289" y="736" type="curve" smooth="yes"/>
			<point x="236" y="736"/>
			<point x="202" y="723"/>
			<point x="170" y="704" type="curve"/>
			<point x="182" y="682" type="line"/>
			<point x="210" y="699"/>
			<point x="245" y="709"/>
			<point x="285" y="709" type="curve" smooth="yes"/>
			<point x="360" y="709"/>
			<point x="418" y="660"/>
			<point x="418" y="570" type="curve" smooth="yes"/>
			<point x="418" y="478"/>
			<point x="361" y="430"/>
			<point x="300" y="430" type="curve" smooth="yes"/>
			<point x="230" y="430"/>
			<point x="176" y="468"/>
			<point x="176" y="560" type="curve"/>
			<point x="168" y="556" type="line"/>
			<point x="436" y="556" type="line"/>
			<point x="436" y="582" type="line"/>
			<point x="149" y="582" type="line"/>
			<point x="148" y="574"/>
			<point x="147" y="564"/>
			<point x="147" y="556" type="curve" smooth="yes"/>
			<point x="147" y="463"/>
			<point x="210" y="403"/>
		</contour>
	</outline>
</glyph>
<glyph name="integralbt" format="2">
	<unicode hex="2321"/>
	<advance width="600"/>
	<outline>
		<contour>
			<point x="216" y="-158" type="curve" smooth="yes"/>
			<point x="296" y="-158"/>
			<point x="316" y="-66"/>
			<point x="316" y="56" type="curve"/>
			<point x="316" y="1000" type="line"/>
			<point x="286" y="1000" type="line"/>
			<point x="286" y="52" type="line"/>
			<point x="286" y="-58"/>
			<point x="276" y="-130"/>
			<point x="216" y="-130" type="curve" smooth="yes"/>
			<point x="202" y="-130"/>
			<point x="190" y="-128"/>
			<point x="182" y="-126" type="curve"/>
			<point x="176" y="-152" type="line"/>
			<point x="184" y="-156"/>
			<point x="198" y="-158"/>
		</contour>
	</outline>
</glyph>
<glyph name="lightuprightbxd" format="2">
	<unicode hex="2514"/>
	<advance width="600"/>
	<outline>
		<contour>
			<point x="615" y="285" type="line"/>
			<point x="615" y="315" type="line"/>
			<point x="315" y="315" type="line"/>
			<point x="315" y="1000" type="line"/>
			<point x="285" y="1000" type="line"/>
			<point x="285" y="285" type="line"/>
		</contour>
	</outline>
</glyph>
<glyph name="lightdbldashvertbxd" format="2">
	<unicode hex="254E"/>
	<advance width="600"/>
	<outline>
		<contour>
			<point x="285" y="450" type="line"/>
			<point x="315" y="450" type="line"/>
			<point x="315" y="750" type="line"/>
			<point x="285" y="750" type="line"/>
		</contour>
		<contour>
			<point x="285" y="-150" type="line"/>
			<point x="315" y="-150" type="line"/>
			<point x="315" y="150" type="line"/>
			<point x="285" y="150" type="line"/>
		</contour>
	</outline>
</glyph>
<glyph name="circlewhite" format="2">
	<unicode hex="25CB"/>
	<advance width="600"/>
	<outline>
		<contour>
			<point x="300" y="112" type="curve" smooth="yes"/>
			<point x="428" y="112"/>
			<point x="520" y="206"/>
			<point x="520" y="330" type="curve" smooth="yes"/>
			<point x="520" y="454"/>
			<point x="428" y="548"/>
			<point x="300" y="548" type="curve" smooth="yes"/>
			<point x="172" y="548"/>
			<point x="80" y="454"/>
			<point x="80" y="330" type="curve" smooth="yes"/>
			<point x="80" y="206"/>
			<point x="172" y="112"/>
		</contour>
		<contour>
			<point x="300" y="140" type="curve" smooth="yes"/>
			<point x="192" y="140"/>
			<point x="112" y="220"/>
			<point x="112" y="330" type="curve" smooth="yes"/>
			<point x="112" y="440"/>
			<point x="192" y="520"/>
			<point x="300" y="520" type="curve" smooth="yes"/>
			<point x="408" y="520"/>
			<point x="488" y="440"/>
			<point x="488" y="330" type="curve" smooth="yes"/>
			<point x="488" y="220"/>
			<point x="408" y="140"/>
		</contour>
	</outline>
</glyph>
<glyph name="heart" format="2">
	<unicode hex="2665"/>
	<advance width="600"/>
	<outline>
		<contour>
			<point x="302" y="-12" type="line"/>
			<point x="540" y="252"/>
			<point x="584" y="382"/>
			<point x="584" y="524" type="curve" smooth="yes"/>
			<point x="584" y="656"/>
			<point x="524" y="722"/>
			<point x="444" y="722" type="curve" smooth="yes"/>
			<point x="382" y="722"/>
			<point x="330" y="690"/>
			<point x="302" y="602" type="curve"/>
			<point x="298" y="602" type="line"/>
			<point x="270" y="690"/>
			<point x="220" y="722"/>
			<point x="156" y="722" type="curve" smooth="yes"/>
			<point x="76" y="722"/>
			<point x="16" y="656"/>
			<point x="16" y="524" type="curve" smooth="yes"/>
			<point x="16" y="382"/>
			<point x="60" y="252"/>
			<point x="298" y="-12" type="curve"/>
		</contour>
	</outline>
</glyph>
<glyph name="acutecmb.cap" format="2">
	<advance width="600"/>
	<outline>
		<contour>
			<point x="278" y="710" type="line"/>
			<point x="404" y="822" type="line"/>
			<point x="382" y="846" type="line"/>
			<point x="264" y="726" type="line"/>
		</contour>
	</outline>
	<anchor name="_aboveUC" x="300" y="680"/>
</glyph>
<glyph name="brevegravecmb.cap" format="2">
	<advance width="600"/>
	<outline>
		<contour>
			<point x="300" y="712" type="curve" smooth="yes"/>
			<point x="387" y="712"/>
			<point x="425" y="779"/>
			<point x="432" y="834" type="curve"/>
			<point x="406" y="838" type="line"/>
			<point x="399" y="786"/>
			<point x="367" y="738"/>
			<point x="300" y="738" type="curve" smooth="yes"/>
			<point x="233" y="738"/>
			<point x="201" y="786"/>
			<point x="194" y="838" type="curve"/>
			<point x="168" y="834" type="line"/>
			<point x="175" y="779"/>
			<point x="213" y="712"/>
		</contour>
		<contour>
			<point x="308" y="802" type="line"/>
			<point x="324" y="816" type="line"/>
			<point x="230" y="916" type="line"/>
			<point x="208" y="896" type="line"/>
		</contour>
	</outline>
	<anchor name="_aboveUC" x="300" y="680"/>
</glyph>
<glyph name="comma.subs" format="2">
	<advance width="600"/>
	<outline>
		<contour>
			<point x="272" y="-276" type="line"/>
			<point x="315" y="-255"/>
			<point x="346" y="-211"/>
			<point x="346" y="-164" type="curve" smooth="yes"/>
			<point x="346" y="-125"/>
			<point x="328" y="-106"/>
			<point x="302" y="-106" type="curve" smooth="yes"/>
			<point x="284" y="-106"/>
			<point x="266" y="-119"/>
			<point x="266" y="-144" type="curve" smooth="yes"/>
			<point x="266" y="-167"/>
			<point x="284" y="-176"/>
			<point x="302" y="-176" type="curve" smooth="yes"/>
			<point x="310" y="-176"/>
			<point x="320" y="-174"/>
			<point x="326" y="-166" type="curve"/>
			<point x="302" y="-130" type="line"/>
			<point x="312" y="-172" type="line"/>
			<point x="312" y="-209"/>
			<point x="290" y="-236"/>
			<point x="258" y="-250" type="curve"/>
		</contour>
	</outline>
</glyph>
<glyph name="dieresisacutecmb" format="2">
	<advance width="600"/>
	<outline>
		<contour>
			<point x="214" y="602" type="curve" smooth="yes"/>
			<point x="232" y="602"/>
			<point x="246" y="616"/>
			<point x="246" y="634" type="curve" smooth="yes"/>
			<point x="246" y="652"/>
			<point x="232" y="666"/>
			<point x="214" y="666" type="curve" smooth="yes"/>
			<point x="196" y="666"/>
			<point x="182" y="652"/>
			<point x="182" y="634" type="curve" smooth="yes"/>
			<point x="182" y="616"/>
			<point x="196" y="602"/>
		</contour>
		<contour>
			<point x="386" y="602" type="curve" smooth="yes"/>
			<point x="404" y="602"/>
			<point x="418" y="616"/>
			<point x="418" y="634" type="curve" smooth="yes"/>
			<point x="418" y="652"/>
			<point x="404" y="666"/>
			<point x="386" y="666" type="curve" smooth="yes"/>
			<point x="368" y="666"/>
			<point x="354" y="652"/>
			<point x="354" y="634" type="curve" smooth="yes"/>
			<point x="354" y="616"/>
			<point x="368" y="602"/>
		</contour>
		<contour>
			<point x="282" y="698" type="line"/>
			<point x="374" y="794" type="line"/>
			<point x="350" y="814" type="line"/>
			<point x="264" y="714" type="line"/>
		</contour>
	</outline>
	<anchor name="_aboveLC" x="300" y="500"/>
</glyph>
<glyph name="gravecmb.cap" format="2">
	<advance width="600"/>
	<outline>
		<contour>
			<point x="322" y="710" type="line"/>
			<point x="336" y="726" type="line"/>
			<point x="218" y="846" type="line"/>
			<point x="196" y="822" type="line"/>
		</contour>
	</outline>
	<anchor name="_aboveUC" x="300" y="680"/>
</glyph>
<glyph name="lbelt.a" format="2">
  <advance width="600"/>
  <anchor x="340" y="740" name="aboveUC"/>
  <anchor x="334" y="0" name="baseLC"/>
  <anchor x="330" y="-20" name="belowLC"/>
  <outline>
    <contour>
      <point x="294" y="340" type="curve" smooth="yes"/>
      <point x="504" y="340" type="line"/>
      <point x="504" y="368" type="line"/>
      <point x="288" y="368" type="line" smooth="yes"/>
      <point x="216" y="368"/>
      <point x="196" y="389"/>
      <point x="196" y="414" type="curve" smooth="yes"/>
      <point x="196" y="433"/>
      <point x="210" y="450"/>
      <point x="244" y="450" type="curve" smooth="yes"/>
      <point x="296" y="450"/>
      <point x="326" y="414"/>
      <point x="326" y="378" type="curve"/>
      <point x="346" y="370" type="line"/>
      <point x="346" y="406"/>
      <point x="328" y="478"/>
      <point x="240" y="478" type="curve" smooth="yes"/>
      <point x="194" y="478"/>
      <point x="164" y="451"/>
      <point x="164" y="416" type="curve" smooth="yes"/>
      <point x="164" y="372"/>
      <point x="200" y="340"/>
    </contour>
    <component base="l.a"/>
  </outline>
</glyph>
<glyph name="one.cap" format="2">
	<advance width="600"/>
	<outline>
		<contour>
			<point x="112" y="0" type="line"/>
			<point x="520" y="0" type="line"/>
			<point x="520" y="28" type="line"/>
			<point x="336" y="28" type="line"/>
			<point x="336" y="660" type="line"/>
			<point x="313" y="660" type="line"/>
			<point x="278" y="644"/>
			<point x="228" y="630"/>
			<point x="162" y="622" type="curve"/>
			<point x="162" y="600" type="line"/>
			<point x="306" y="600" type="line"/>
			<point x="306" y="28" type="line"/>
			<point x="112" y="28" type="line"/>
		</contour>
	</outline>
</glyph>
<glyph name="tonos.cap" format="2">
	<advance width="600"/>
	<outline>
		<contour>
			<point x="290" y="424" type="line"/>
			<point x="334" y="686" type="line"/>
			<point x="292" y="690" type="line"/>
			<point x="264" y="428" type="line"/>
		</contour>
	</outline>
</glyph>
